<svg xmlns="http://www.w3.org/2000/svg" viewBox="0 0 100 100" width="100px" height="100px">
  <path fill="#c7ede6" d="M50,12c-20.987,0-38,17.013-38,38s17.013,38,38,38s38-17.013,38-38S70.987,12,50,12z"/>
  <path fill="#472b29"
        d="M43.5,48.2c-5.349,0-9.7-4.352-9.7-9.7s4.352-9.7,9.7-9.7s9.7,4.352,9.7,9.7S48.849,48.2,43.5,48.2 z M43.5,30.2c-4.577,0-8.3,3.724-8.3,8.3s3.723,8.3,8.3,8.3s8.3-3.724,8.3-8.3S48.077,30.2,43.5,30.2z"/>
  <path fill="#472b29"
        d="M43.5,58.2c-0.387,0-0.7-0.313-0.7-0.7v-38c0-0.387,0.313-0.7,0.7-0.7s0.7,0.313,0.7,0.7v38 C44.2,57.887,43.887,58.2,43.5,58.2z"/>
  <path fill="#472b29"
        d="M46.5,24.2h-6c-0.387,0-0.7-0.313-0.7-0.7s0.313-0.7,0.7-0.7h6c0.387,0,0.7,0.313,0.7,0.7 S46.887,24.2,46.5,24.2z"/>
  <path fill="#472b29"
        d="M46.875,54.325H40c-0.387,0-0.7-0.313-0.7-0.7s0.313-0.7,0.7-0.7h6.875c0.387,0,0.7,0.313,0.7,0.7 S47.262,54.325,46.875,54.325z"/>
  <path fill="#472b29"
        d="M58.5,47.2c-0.113,0-0.228-0.027-0.334-0.085L26.5,29.877c-0.34-0.186-0.465-0.61-0.28-0.95 c0.185-0.341,0.612-0.465,0.949-0.28l31.666,17.238c0.34,0.186,0.465,0.61,0.28,0.95C58.988,47.068,58.748,47.2,58.5,47.2z"/>
  <path fill="#472b29"
        d="M28.753,35.02c-0.115,0-0.23-0.028-0.338-0.087c-0.338-0.188-0.461-0.613-0.274-0.951l3.323-6.019 c0.187-0.338,0.613-0.459,0.951-0.275c0.338,0.188,0.461,0.613,0.274,0.951l-3.323,6.019C29.239,34.889,29,35.02,28.753,35.02z"/>
  <path fill="#472b29"
        d="M55.017,49.52c-0.115,0-0.23-0.028-0.338-0.087c-0.338-0.188-0.461-0.613-0.274-0.951l3.323-6.019 c0.187-0.339,0.613-0.458,0.951-0.275c0.338,0.188,0.461,0.613,0.274,0.951l-3.323,6.019 C55.502,49.389,55.263,49.52,55.017,49.52z"/>
  <path fill="#472b29"
        d="M27.357,49.32c-0.231,0-0.458-0.115-0.592-0.325c-0.207-0.326-0.11-0.759,0.216-0.966 l30.143-19.12c0.326-0.207,0.76-0.11,0.966,0.216c0.207,0.326,0.11,0.759-0.216,0.966l-30.143,19.12 C27.616,49.285,27.486,49.32,27.357,49.32z"/>
  <path fill="#472b29"
        d="M32.715,50.067c-0.231,0-0.458-0.115-0.592-0.325l-3.681-5.806 c-0.207-0.326-0.11-0.759,0.216-0.966c0.327-0.208,0.759-0.109,0.966,0.216l3.681,5.806c0.207,0.326,0.11,0.759-0.216,0.966 C32.974,50.032,32.844,50.067,32.715,50.067z"/>
  <path fill="#472b29"
        d="M57.5,33.2c-0.213,0-0.423-0.097-0.561-0.28l-3-4c-0.232-0.31-0.169-0.748,0.14-0.979 c0.31-0.233,0.748-0.17,0.98,0.14l3,4c0.232,0.31,0.169,0.748-0.14,0.979C57.794,33.154,57.646,33.2,57.5,33.2z"/>
  <path fill="#f1bc19" d="M78,13c-0.552,0-1,0.448-1,1s0.448,1,1,1s1-0.448,1-1S78.552,13,78,13z"/>
  <path fill="#f1bc19" d="M84,12c-2.209,0-4,1.791-4,4s1.791,4,4,4s4-1.791,4-4S86.209,12,84,12z"/>
  <path fill="#ee3e54" d="M14,24c-1.105,0-2,0.895-2,2s0.895,2,2,2s2-0.895,2-2S15.105,24,14,24z"/>
  <path fill="#fbcd59"
        d="M78,75c-1.105,0-2,0.895-2,2s0.895,2,2,2s2-0.895,2-2S79.105,75,78,75z M17,74 c-2.209,0-4,1.791-4,4s1.791,4,4,4s4-1.791,4-4S19.209,74,17,74z"/>
  <path fill="#ee3e54" d="M24,81c-1.105,0-2,0.895-2,2s0.895,2,2,2s2-0.895,2-2S25.105,81,24,81z"/>
  <path fill="#fff"
        d="M66.483,76.034c-1.371,0-2.483,1.112-2.483,2.483S65.112,81,66.483,81s2.483-1.112,2.483-2.483 S67.854,76.034,66.483,76.034z M16,47c-0.552,0-1,0.448-1,1s0.448,1,1,1c0.552,0,1-0.448,1-1S16.552,47,16,47z"/>
  <path fill="#f1bc19" d="M86,30c-0.552,0-1,0.448-1,1s0.448,1,1,1s1-0.448,1-1S86.552,30,86,30z"/>
  <path fill="#fff" d="M80,64c-1.105,0-2,0.895-2,2s0.895,2,2,2s2-0.895,2-2S81.105,64,80,64z"/>
  <path fill="#edf7f5"
        d="M49.281,66.334c0,3.512,2.848,6.359,6.359,6.359c3.512,0,6.359-2.848,6.359-6.359 c0-2.073-1.007-3.897-2.544-5.058V30.374c0-1.924-1.559-3.484-3.482-3.484h-0.665c-1.924,0-3.484,1.559-3.484,3.484v30.901 C50.288,62.435,49.281,64.26,49.281,66.334z"/>
  <g>
    <path fill="#2d80d3"
          d="M48.527,67.804c0,3.72,3.017,6.737,6.737,6.737S62,71.524,62,67.804 c0-2.196-1.067-4.128-2.695-5.358v-18.42h-8.084v18.42C49.594,63.674,48.527,65.608,48.527,67.804z"/>
  </g>
  <g>
    <path fill="#472b29"
          d="M58.886,45.837c0-0.448,0.364-0.811,0.811-0.811h6.491c0.448,0,0.811,0.364,0.811,0.811 c0,0.448-0.364,0.811-0.811,0.811h-6.491C59.25,46.648,58.886,46.285,58.886,45.837z"/>
  </g>
  <g>
    <path fill="#472b29"
          d="M58.886,31.232c0-0.448,0.364-0.811,0.811-0.811h6.491c0.448,0,0.811,0.364,0.811,0.811 c0,0.448-0.364,0.811-0.811,0.811h-6.491C59.25,32.043,58.886,31.679,58.886,31.232z"/>
  </g>
  <g>
    <path fill="#472b29"
          d="M58.886,60.442c0-0.448,0.364-0.811,0.811-0.811h6.491c0.448,0,0.811,0.364,0.811,0.811 c0,0.448-0.364,0.811-0.811,0.811h-6.491C59.25,61.253,58.886,60.89,58.886,60.442z"/>
  </g>
  <g>
    <path fill="#472b29"
          d="M58.886,50.705c0-0.448,0.364-0.811,0.811-0.811h3.246c0.448,0,0.811,0.364,0.811,0.811 c0,0.448-0.364,0.811-0.811,0.811h-3.246C59.25,51.516,58.886,51.153,58.886,50.705z"/>
  </g>
  <g>
    <path fill="#472b29"
          d="M58.886,55.573c0-0.448,0.364-0.811,0.811-0.811h3.246c0.448,0,0.811,0.364,0.811,0.811 c0,0.448-0.364,0.811-0.811,0.811h-3.246C59.25,56.385,58.886,56.021,58.886,55.573z"/>
  </g>
  <g>
    <path fill="#472b29"
          d="M58.886,36.1c0-0.448,0.364-0.811,0.811-0.811h3.246c0.448,0,0.811,0.364,0.811,0.811 s-0.364,0.811-0.811,0.811h-3.246C59.25,36.911,58.886,36.548,58.886,36.1z"/>
  </g>
  <g>
    <path fill="#472b29"
          d="M58.886,40.968c0-0.448,0.364-0.811,0.811-0.811h3.246c0.448,0,0.811,0.363,0.811,0.811 s-0.364,0.811-0.811,0.811h-3.246C59.25,41.78,58.886,41.416,58.886,40.968z"/>
  </g>
  <g>
    <path fill="#472b29"
          d="M55.5,75.2c-4.246,0-7.7-3.454-7.7-7.7c0-2.398,1.115-4.65,3-6.096V30.25 c0-2.454,1.997-4.45,4.45-4.45c1.186,0,2.303,0.464,3.145,1.305c0.842,0.843,1.306,1.959,1.306,3.146v30.799 c2.168,1.41,3.5,3.846,3.5,6.451C63.2,71.746,59.746,75.2,55.5,75.2z M55.25,27.2c-1.682,0-3.05,1.368-3.05,3.05v31.877 l-0.302,0.208c-1.689,1.17-2.698,3.101-2.698,5.165c0,3.474,2.826,6.3,6.3,6.3s6.3-2.826,6.3-6.3c0-2.244-1.207-4.334-3.149-5.453 L58.3,61.845V30.25c0-0.812-0.318-1.578-0.895-2.155S56.062,27.2,55.25,27.2z"/>
  </g>
</svg>
