<svg xmlns="http://www.w3.org/2000/svg" viewBox="0 0 64 64" width="100px" height="100px">
  <path fill="#f9e3ae"
        d="M38 7c2.88-2.59 3.81-2.41 4.46-1.94s4.19 5 4.19 5-3.47 2.21-4.71.92S38 7 38 7zM27.65 7c-2.88-2.59-3.81-2.41-4.46-1.94s-4.19 5-4.19 5 3.47 2.21 4.71.92S27.65 7 27.65 7z"/>
  <path fill="#faefde"
        d="M33 58.79A2.22 2.22 0 0 1 30.78 61h0a2 2 0 0 1-2-1.77L27 43h6zM35.22 61h0A2.22 2.22 0 0 1 33 58.79V43h6L37.21 59.25A2 2 0 0 1 35.22 61z"/>
  <path fill="#ed7899"
        d="M44.58,35.23l-2.13-9.05A8,8,0,0,0,34.66,20H31.34a8,8,0,0,0-7.79,6.17l-2.13,9.05a2,2,0,0,0,1.31,2.36L24,38h.44L23,45H43l-1.44-7H42l1.27-.42A2,2,0,0,0,44.58,35.23Z"/>
  <path fill="#faefde" d="M33 5.01A6 6 0 1 0 33 17.009999999999998A6 6 0 1 0 33 5.01Z"/>
  <path fill="#8d6c9f"
        d="M48 34a1 1 0 0 0-1 1v2a1 1 0 0 0 2 0V35A1 1 0 0 0 48 34zM13 34a1 1 0 0 0-1 1v2a1 1 0 0 0 2 0V35A1 1 0 0 0 13 34zM8 34a1 1 0 0 0-1 1v2a1 1 0 0 0 2 0V35A1 1 0 0 0 8 34zM18 34a1 1 0 0 0-1 1v2a1 1 0 0 0 2 0V35A1 1 0 0 0 18 34zM53 34a1 1 0 0 0-1 1v2a1 1 0 0 0 2 0V35A1 1 0 0 0 53 34zM58 34a1 1 0 0 0-1 1v2a1 1 0 0 0 2 0V35A1 1 0 0 0 58 34zM43.42 26A9 9 0 0 0 34.66 19H31.34A9 9 0 0 0 22.58 26L20.44 35a3 3 0 0 0 2 3.53l.84.28-1.23 6a1 1 0 0 0 .21.83A1 1 0 0 0 23 46h3.33L27.8 59.36a3 3 0 0 0 3 2.65A3.2 3.2 0 0 0 33 61.12a3.19 3.19 0 0 0 2.21.89 3 3 0 0 0 3-2.66L39.67 46H43a1 1 0 0 0 .77-.37 1 1 0 0 0 .21-.83l-1.23-6 .84-.28a3 3 0 0 0 2-3.53zM30.78 60a1 1 0 0 1-1-.87L28.34 46H32V58.79A1.22 1.22 0 0 1 30.78 60zm5.43-.88a1 1 0 0 1-1 .88A1.22 1.22 0 0 1 34 58.79V46h3.66zM43 36.64l-.61.2L40.25 26.69a1 1 0 0 0-1.18-.77 1 1 0 0 0-.78 1.18L41.77 44H24.23L27.71 27.1a1 1 0 0 0-.78-1.18 1 1 0 0 0-1.18.77L23.66 36.84l-.61-.2a1 1 0 0 1-.66-1.18l2.13-9.05A7 7 0 0 1 31.34 21h3.33a7 7 0 0 1 6.81 5.4l2.13 9.05A1 1 0 0 1 43 36.64zM22.17 12.09A6.19 6.19 0 0 0 26 10.75c0 .09 0 .18 0 .27a7 7 0 0 0 14 0c0-.09 0-.18 0-.27a6.16 6.16 0 0 0 3.83 1.34 6.28 6.28 0 0 0 3.78-1.27 1 1 0 0 0 .17-1.44L44.37 5.3a3.64 3.64 0 0 0-5-.58l-1.6 1.2a7 7 0 0 0-9.58 0l-1.6-1.2a3.64 3.64 0 0 0-5 .58L18.23 9.37a1 1 0 0 0-.2.77 1.07 1.07 0 0 0 .42.7A6.18 6.18 0 0 0 22.17 12.09zM40.59 6.32a1.64 1.64 0 0 1 2.24.26l2.64 3.17a4.2 4.2 0 0 1-4.87-1.17l-1.17-1.4zM33 6a5 5 0 1 1-5 5A5 5 0 0 1 33 6zm-9.84.57a1.64 1.64 0 0 1 2.24-.26l1.15.86-1.17 1.4a4.18 4.18 0 0 1-4.87 1.17z"/>
</svg>
