<svg xmlns="http://www.w3.org/2000/svg" viewBox="0 0 100 100" width="50px" height="50px">
  <path fill="#ee3e54" d="M13 27A2 2 0 1 0 13 31A2 2 0 1 0 13 27Z"/>
  <path fill="#f1bc19" d="M77 12A1 1 0 1 0 77 14A1 1 0 1 0 77 12Z"/>
  <path fill="#fce0a2" d="M50 13A37 37 0 1 0 50 87A37 37 0 1 0 50 13Z"/>
  <path fill="#f1bc19" d="M83 11A4 4 0 1 0 83 19A4 4 0 1 0 83 11Z"/>
  <path fill="#ee3e54" d="M87 22A2 2 0 1 0 87 26A2 2 0 1 0 87 22Z"/>
  <path fill="#fbcd59" d="M81 74A2 2 0 1 0 81 78 2 2 0 1 0 81 74zM15 59A4 4 0 1 0 15 67 4 4 0 1 0 15 59z"/>
  <path fill="#ee3e54" d="M25 85A2 2 0 1 0 25 89A2 2 0 1 0 25 85Z"/>
  <path fill="#fff" d="M18.5 51A2.5 2.5 0 1 0 18.5 56A2.5 2.5 0 1 0 18.5 51Z"/>
  <path fill="#f1bc19" d="M21 66A1 1 0 1 0 21 68A1 1 0 1 0 21 66Z"/>
  <path fill="#fff" d="M80 33A1 1 0 1 0 80 35A1 1 0 1 0 80 33Z"/>
  <g>
    <path fill="#ea5167"
          d="M62.167,34.5H37.328l4.843-4.844l-2.828-2.828L29.672,36.5l9.671,9.672l2.828-2.828L37.328,38.5 h24.839c3.492,0,6.333,2.841,6.333,6.333V53.5h4v-8.667C72.5,39.136,67.864,34.5,62.167,34.5z"/>
    <path fill="#472b29"
          d="M72.5,54.2h-4c-0.387,0-0.7-0.313-0.7-0.7v-8.667c0-3.106-2.527-5.633-5.633-5.633H39.018 l3.648,3.648c0.273,0.273,0.273,0.717,0,0.99l-2.828,2.828c-0.263,0.262-0.728,0.262-0.99,0l-9.671-9.672 c-0.273-0.273-0.273-0.717,0-0.99l9.671-9.672c0.263-0.262,0.728-0.262,0.99,0l2.828,2.828c0.273,0.273,0.273,0.717,0,0.99 L39.018,33.8h23.148c6.084,0,11.034,4.949,11.034,11.033V53.5C73.2,53.887,72.887,54.2,72.5,54.2z M69.2,52.8h2.6v-7.967 c0-5.312-4.321-9.633-9.633-9.633H37.328c-0.283,0-0.539-0.171-0.646-0.433c-0.108-0.262-0.049-0.563,0.151-0.763l4.349-4.349 l-1.838-1.838L30.662,36.5l8.682,8.682l1.838-1.838l-4.349-4.349c-0.2-0.2-0.26-0.501-0.151-0.763 c0.108-0.262,0.363-0.433,0.646-0.433h24.838c3.878,0,7.034,3.155,7.034,7.033V52.8z"/>
  </g>
  <g>
    <path fill="#472b29"
          d="M65.5,50c-0.276,0-0.5-0.224-0.5-0.5v-3.833C65,43.645,63.417,42,61.472,42H58.5 c-0.276,0-0.5-0.224-0.5-0.5s0.224-0.5,0.5-0.5h2.972C63.969,41,66,43.094,66,45.667V49.5C66,49.776,65.776,50,65.5,50z"/>
  </g>
  <g>
    <path fill="#472b29"
          d="M56.5,42h-2c-0.276,0-0.5-0.224-0.5-0.5s0.224-0.5,0.5-0.5h2c0.276,0,0.5,0.224,0.5,0.5 S56.776,42,56.5,42z"/>
  </g>
  <g>
    <path fill="#472b29"
          d="M51.5,42h-3c-0.276,0-0.5-0.224-0.5-0.5s0.224-0.5,0.5-0.5h3c0.276,0,0.5,0.224,0.5,0.5 S51.776,42,51.5,42z"/>
  </g>
  <g>
    <path fill="#472b29"
          d="M43.5,60h-2.972C38.031,60,36,57.906,36,55.333V51.5c0-0.276,0.224-0.5,0.5-0.5s0.5,0.224,0.5,0.5 v3.833C37,57.355,38.583,59,40.528,59H43.5c0.276,0,0.5,0.224,0.5,0.5S43.776,60,43.5,60z"/>
  </g>
  <g>
    <path fill="#472b29"
          d="M47.5,60h-2c-0.276,0-0.5-0.224-0.5-0.5s0.224-0.5,0.5-0.5h2c0.276,0,0.5,0.224,0.5,0.5 S47.776,60,47.5,60z"/>
  </g>
  <g>
    <path fill="#472b29"
          d="M53.5,60h-3c-0.276,0-0.5-0.224-0.5-0.5s0.224-0.5,0.5-0.5h3c0.276,0,0.5,0.224,0.5,0.5 S53.776,60,53.5,60z"/>
  </g>
  <g>
    <path fill="#ea5167"
          d="M39.005,66.828h24.839L59,71.672l2.828,2.828l9.671-9.672l-9.671-9.672L59,57.984l4.843,4.844 H39.005c-3.492,0-6.333-2.841-6.333-6.333v-8.667h-4v8.667C28.672,62.192,33.308,66.828,39.005,66.828z"/>
    <path fill="#472b29"
          d="M61.829,75.2c-0.186,0-0.364-0.074-0.495-0.205l-2.828-2.828c-0.273-0.273-0.273-0.717,0-0.99 l3.648-3.648H39.005c-6.084,0-11.034-4.949-11.034-11.033v-8.667c0-0.387,0.313-0.7,0.7-0.7h4c0.387,0,0.7,0.313,0.7,0.7v8.667 c0,3.106,2.527,5.633,5.633,5.633h23.148l-3.648-3.648c-0.273-0.273-0.273-0.717,0-0.99l2.828-2.828 c0.263-0.262,0.728-0.262,0.99,0l9.671,9.672c0.273,0.273,0.273,0.717,0,0.99l-9.671,9.672C62.192,75.126,62.014,75.2,61.829,75.2z M59.99,71.672l1.838,1.838l8.682-8.682l-8.682-8.682l-1.838,1.838l4.349,4.349c0.2,0.2,0.26,0.501,0.151,0.763 c-0.108,0.262-0.363,0.433-0.646,0.433H39.005c-3.878,0-7.034-3.155-7.034-7.033v-7.967h-2.6v7.967 c0,5.312,4.321,9.633,9.633,9.633h24.838c0.283,0,0.539,0.171,0.646,0.433c0.108,0.262,0.049,0.563-0.151,0.763L59.99,71.672z"/>
  </g>
</svg>
