<svg xmlns="http://www.w3.org/2000/svg" viewBox="0 0 100 100" width="50px" height="50px">
  <path fill="#ee3e54" d="M13 27A2 2 0 1 0 13 31A2 2 0 1 0 13 27Z"/>
  <path fill="#f1bc19" d="M77 12A1 1 0 1 0 77 14A1 1 0 1 0 77 12Z"/>
  <path fill="#fce0a2" d="M50 13A37 37 0 1 0 50 87A37 37 0 1 0 50 13Z"/>
  <path fill="#f1bc19" d="M83 11A4 4 0 1 0 83 19A4 4 0 1 0 83 11Z"/>
  <path fill="#ee3e54" d="M87 22A2 2 0 1 0 87 26A2 2 0 1 0 87 22Z"/>
  <path fill="#fbcd59" d="M81 74A2 2 0 1 0 81 78 2 2 0 1 0 81 74zM15 59A4 4 0 1 0 15 67 4 4 0 1 0 15 59z"/>
  <path fill="#ee3e54" d="M25 85A2 2 0 1 0 25 89A2 2 0 1 0 25 85Z"/>
  <path fill="#f1bc19" d="M21 66A1 1 0 1 0 21 68A1 1 0 1 0 21 66Z"/>
  <path fill="#fff" d="M80 33A1 1 0 1 0 80 35A1 1 0 1 0 80 33Z"/>
  <path fill="#a3a3cd"
        d="M59.959,45.435c-0.757-0.148-1.484-0.384-2.167-0.701c0.267-1.048-0.061-2.117-0.885-2.825 l-0.111-0.095l-0.022-0.007c-0.463-0.349-1.015-0.532-1.603-0.532c-0.388,0-0.783,0.083-1.156,0.242 c-0.432-0.631-0.782-1.308-1.046-2.02c1.243-0.754,1.433-1.836,1.36-2.641c-0.077-0.79-0.455-1.8-1.776-2.322 c0.138-0.747,0.369-1.475,0.688-2.165c0.279,0.071,0.546,0.106,0.801,0.106c0.812,0,1.507-0.344,2.067-1.023 c0.5-0.62,0.936-1.607,0.351-2.907c0.631-0.434,1.306-0.784,2.017-1.049c0.668,1.165,1.632,1.423,2.352,1.422 c0.1,0,0.202-0.004,0.306-0.014c0.808-0.068,1.846-0.45,2.355-1.834c0.715,0.136,1.449,0.37,2.16,0.697 c-0.421,1.545,0.312,2.488,1.033,3.019c0.484,0.354,1.01,0.535,1.565,0.535c0.406,0,0.822-0.099,1.24-0.292 c0.427,0.626,0.772,1.302,1.033,2.021c-1.284,0.736-1.493,1.831-1.428,2.648c0.069,0.815,0.448,1.856,1.824,2.365 c-0.104,0.568-0.434,1.601-0.706,2.158c-0.291-0.075-0.566-0.112-0.829-0.112c-0.817,0-1.512,0.345-2.066,1.024 c-0.493,0.606-0.93,1.583-0.367,2.884c-0.633,0.425-1.313,0.77-2.029,1.026c-0.683-1.133-1.631-1.385-2.333-1.385 c-0.164,0-0.334,0.014-0.512,0.04C61.06,43.864,60.351,44.447,59.959,45.435z M61.729,34.249c-0.872,0-1.637,0.56-1.904,1.392 c-0.163,0.511-0.118,1.053,0.126,1.527s0.66,0.825,1.17,0.988c0.198,0.063,0.404,0.096,0.612,0.096 c0.872,0,1.637-0.56,1.903-1.393c0.163-0.509,0.118-1.052-0.126-1.526s-0.66-0.825-1.17-0.988 C62.142,34.281,61.936,34.249,61.729,34.249z"/>
  <path fill="#472b29"
        d="M63.889,27.881c0.323,0.083,0.645,0.187,0.965,0.311c-0.155,1.263,0.329,2.361,1.414,3.157 c0.606,0.446,1.272,0.672,1.98,0.672c0.316,0,0.635-0.046,0.953-0.138c0.171,0.291,0.325,0.592,0.461,0.905 c-0.919,0.727-1.364,1.752-1.267,2.972c0.102,1.205,0.697,2.135,1.709,2.697c-0.088,0.313-0.206,0.67-0.319,0.975 c-0.136-0.015-0.27-0.022-0.402-0.022c-1.023,0-1.925,0.443-2.611,1.283c-0.728,0.896-0.954,1.943-0.665,3.027 c-0.302,0.177-0.614,0.334-0.936,0.473c-0.66-0.802-1.552-1.233-2.584-1.233c-0.2,0-0.408,0.016-0.631,0.05 c-0.78,0.126-1.756,0.522-2.388,1.619c-0.342-0.089-0.675-0.197-0.998-0.323c0.092-1.108-0.336-2.179-1.208-2.928l-0.213-0.183 l-0.05-0.016c-0.565-0.396-1.226-0.604-1.929-0.604c-0.289,0-0.58,0.037-0.862,0.106c-0.181-0.302-0.343-0.614-0.485-0.934 c0.887-0.734,1.309-1.756,1.2-2.963c-0.114-1.17-0.702-2.083-1.67-2.641c0.084-0.333,0.188-0.661,0.314-0.986 c0.126,0.013,0.25,0.02,0.372,0.02c1.016,0,1.918-0.442,2.619-1.291c0.735-0.913,0.953-1.972,0.649-3.053 c0.292-0.174,0.595-0.332,0.911-0.473c0.654,0.82,1.554,1.26,2.61,1.26c0.12,0,0.242-0.005,0.359-0.016 C62.398,29.5,63.33,28.898,63.889,27.881 M61.732,38.952c1.178,0,2.211-0.755,2.571-1.878c0.22-0.688,0.159-1.419-0.171-2.061 c-0.33-0.641-0.891-1.115-1.578-1.334c-0.268-0.086-0.546-0.13-0.826-0.13c-1.178,0-2.211,0.755-2.57,1.878 c-0.454,1.418,0.331,2.941,1.75,3.396C61.175,38.909,61.452,38.952,61.732,38.952 M63.203,26.32c-0.129,0-0.242,0.085-0.277,0.211 c-0.282,1.045-0.893,1.595-1.856,1.676c-0.082,0.007-0.163,0.011-0.241,0.011c-0.853,0-1.473-0.446-1.89-1.353 c-0.049-0.103-0.151-0.167-0.257-0.167c-0.03,0-0.061,0.005-0.091,0.016c-1.018,0.334-1.975,0.833-2.832,1.469 c-0.112,0.083-0.15,0.242-0.079,0.371c0.518,0.918,0.48,1.717-0.111,2.452c-0.423,0.513-0.928,0.769-1.528,0.769 c-0.286,0-0.594-0.058-0.925-0.175c-0.031-0.011-0.063-0.017-0.095-0.017c-0.106,0-0.207,0.061-0.255,0.163 c-0.48,0.942-0.805,1.959-0.961,3.024c-0.018,0.139,0.065,0.271,0.197,0.313c1.013,0.298,1.539,0.902,1.63,1.835 c0.087,0.965-0.34,1.66-1.294,2.126c-0.124,0.059-0.192,0.209-0.149,0.342c0.334,1.018,0.829,1.967,1.459,2.822 c0.008,0.016,0.024,0.028,0.04,0.04c0.052,0.045,0.123,0.069,0.196,0.069c0.043,0,0.087-0.008,0.127-0.025 c0.03-0.01,0.053-0.022,0.069-0.03c0.356-0.192,0.73-0.287,1.092-0.287c0.458,0,0.896,0.152,1.257,0.451 c0.006,0.002,0.016,0.012,0.022,0.014c0.673,0.578,0.9,1.436,0.61,2.3c-0.052,0.162-0.057,0.384,0.227,0.528 c0.872,0.431,1.799,0.728,2.755,0.895c0.001,0,0.003,0,0.004,0c0.039,0,0.081,0.007,0.118,0.012l0.038,0.005 c0.011,0.001,0.021,0.002,0.032,0.002c0.122,0,0.239-0.085,0.277-0.206c0.279-0.934,0.819-1.447,1.668-1.584 c0.141-0.021,0.277-0.032,0.407-0.032c0.826,0,1.445,0.433,1.88,1.318c0.051,0.099,0.151,0.157,0.256,0.157 c0.029,0,0.059-0.004,0.088-0.014c1.022-0.327,1.976-0.813,2.835-1.436c0.112-0.083,0.15-0.242,0.079-0.371 c-0.498-0.918-0.454-1.716,0.134-2.438c0.419-0.513,0.924-0.767,1.525-0.767c0.287,0,0.596,0.058,0.929,0.173 C70.343,40.994,70.376,41,70.408,41c0.093,0,0.181-0.046,0.235-0.123c0.393-0.567,1.019-2.485,1.008-3.108 c0-0.125-0.088-0.24-0.21-0.272c-1.025-0.282-1.569-0.891-1.65-1.854c-0.077-0.975,0.361-1.666,1.354-2.127 c0.132-0.063,0.2-0.213,0.157-0.346c-0.33-1.029-0.821-1.991-1.457-2.848c-0.055-0.076-0.139-0.116-0.225-0.116 c-0.051,0-0.102,0.014-0.148,0.043c-0.424,0.248-0.832,0.373-1.223,0.373c-0.403,0-0.787-0.133-1.151-0.4 c-0.86-0.631-1.081-1.467-0.675-2.571c0.052-0.142-0.012-0.294-0.143-0.356c-0.972-0.489-1.989-0.815-3.035-0.971 C63.23,26.321,63.217,26.32,63.203,26.32L63.203,26.32z M61.732,37.552c-0.132,0-0.266-0.02-0.398-0.063 c-0.686-0.22-1.062-0.95-0.843-1.636c0.177-0.553,0.687-0.905,1.237-0.905c0.132,0,0.266,0.02,0.399,0.063 c0.686,0.219,1.062,0.95,0.843,1.635C62.792,37.2,62.282,37.552,61.732,37.552L61.732,37.552z"/>
  <path fill="#7777ab"
        d="M63.171,31.749c-2.482-0.794-5.149,0.58-5.943,3.062s0.58,5.149,3.062,5.943 c2.482,0.794,5.149-0.58,5.943-3.062c0.298-0.931,0.291-1.889,0.034-2.764c-0.098-0.334-0.232-0.656-0.4-0.959 c-0.202-0.367-0.452-0.707-0.746-1.01c-0.264-0.273-0.563-0.516-0.893-0.722C63.905,32.035,63.551,31.87,63.171,31.749z M62.394,34.18c1.139,0.365,1.773,1.595,1.409,2.734c-0.365,1.139-1.595,1.773-2.734,1.409c-1.139-0.365-1.773-1.595-1.409-2.734 C60.024,34.449,61.254,33.815,62.394,34.18z"/>
  <path fill="#a3a3cd"
        d="M36.478,63.351c-0.271,0-0.542-0.008-0.813-0.023c-0.153-1.618-1.125-2.852-2.62-3.329 l-0.104-0.033l-0.033-0.001c-0.315-0.089-0.638-0.133-0.962-0.133c-1.088,0-2.134,0.507-2.889,1.396 c-1.128-0.698-2.153-1.557-3.053-2.557c1.084-1.352,1.245-2.768,0.48-4.216c-0.702-1.309-1.816-1.969-3.313-1.969 c-0.126,0-0.257,0.005-0.39,0.014c-0.306-1.309-0.427-2.646-0.354-3.964c1.766-0.181,2.895-1.083,3.368-2.685 c0.455-1.546,0.023-2.885-1.283-3.984c0.703-1.144,1.557-2.169,2.552-3.065c0.801,0.675,1.64,1.016,2.498,1.016 c0.584,0,1.179-0.159,1.769-0.473c1.46-0.765,2.118-2.039,1.953-3.79c1.049-0.247,2.124-0.372,3.204-0.372 c0.256,0,0.514,0.007,0.771,0.021c0.157,1.895,1.133,3.079,2.902,3.51c0.312,0.074,0.617,0.111,0.912,0.111 c1.106,0,2.078-0.501,2.891-1.489c1.135,0.704,2.156,1.567,3.046,2.573c-1.148,1.362-1.338,2.795-0.568,4.266 c0.695,1.328,1.808,2.001,3.307,2.001c0.154,0,0.313-0.008,0.478-0.021c0.25,0.846,0.426,3.03,0.317,3.968 c-1.777,0.176-2.917,1.076-3.398,2.681c-0.448,1.523-0.027,2.858,1.25,3.976c-0.705,1.125-1.571,2.146-2.576,3.031 c-0.797-0.639-1.626-0.965-2.461-0.965c-0.668,0-1.343,0.208-2.008,0.619c-1.244,0.762-1.819,1.948-1.711,3.528 C38.579,63.233,37.526,63.351,36.478,63.351z M36.472,45.945c-1.448,0-2.717,0.927-3.159,2.308 c-0.557,1.741,0.406,3.612,2.149,4.171c0.329,0.104,0.669,0.158,1.012,0.158c1.448,0,2.717-0.927,3.159-2.308 c0.271-0.844,0.196-1.743-0.21-2.53c-0.406-0.788-1.094-1.37-1.938-1.641C37.155,45.999,36.814,45.945,36.472,45.945z"/>
  <path fill="#472b29"
        d="M36.487,35.882c0.052,0,0.105,0,0.157,0.001c0.424,2.305,2.014,3.185,3.358,3.512 c0.361,0.086,0.721,0.13,1.071,0.13c0.809,0,1.926-0.238,3-1.283c0.727,0.497,1.403,1.068,2.023,1.71 c-1.229,1.794-0.858,3.436-0.276,4.548c0.801,1.529,2.129,2.349,3.846,2.375c0.123,0.732,0.219,1.857,0.211,2.637 c-2.15,0.423-3.039,1.875-3.406,3.097c-0.335,1.142-0.391,2.748,1.021,4.267c-0.506,0.735-1.084,1.415-1.727,2.032 c-0.778-0.507-1.585-0.763-2.408-0.763c-0.8,0-1.6,0.244-2.372,0.721c-0.942,0.577-1.999,1.652-2.061,3.562 c-0.81,0.149-1.633,0.225-2.454,0.225c-0.069,0-0.138,0-0.208-0.001c-0.345-1.58-1.453-2.821-3.014-3.32l-0.236-0.07h-0.034 c-0.34-0.085-0.686-0.128-1.034-0.128c-1.101,0-2.161,0.431-2.993,1.194c-0.737-0.5-1.422-1.075-2.043-1.711 c1.154-1.775,0.771-3.393,0.189-4.495c-0.792-1.475-2.087-2.278-3.752-2.331c-0.168-0.88-0.248-1.764-0.238-2.647 c2.124-0.433,3-1.879,3.359-3.093c0.343-1.165,0.397-2.793-1.051-4.294c0.494-0.733,1.062-1.415,1.697-2.038 c0.782,0.531,1.603,0.8,2.449,0.8c0.7,0,1.406-0.187,2.09-0.551c1.107-0.579,2.341-1.707,2.358-3.851 C34.822,35.96,35.652,35.882,36.487,35.882L36.487,35.882 M36.475,53.282c1.753,0,3.29-1.123,3.825-2.794 c0.327-1.022,0.237-2.111-0.255-3.064c-0.491-0.954-1.325-1.659-2.347-1.986c-0.398-0.127-0.811-0.192-1.226-0.192 c-1.753,0-3.29,1.123-3.825,2.794c-0.327,1.022-0.237,2.111,0.255,3.064c0.491,0.954,1.325,1.659,2.347,1.986 C35.647,53.217,36.059,53.282,36.475,53.282 M36.487,34.482c-1.232,0-2.442,0.153-3.612,0.452 c-0.208,0.05-0.341,0.248-0.313,0.463c0.211,1.573-0.297,2.667-1.56,3.328c-0.49,0.261-0.97,0.391-1.441,0.391 c-0.754,0-1.487-0.333-2.213-0.996c-0.081-0.075-0.183-0.112-0.284-0.112c-0.099,0-0.197,0.035-0.277,0.104 c-1.19,1.035-2.204,2.25-3.001,3.602c-0.112,0.177-0.072,0.417,0.1,0.547c1.228,0.949,1.629,2.06,1.237,3.392 c-0.41,1.387-1.382,2.107-2.987,2.205c-0.209,0.009-0.381,0.181-0.393,0.39c-0.114,1.558,0.032,3.123,0.414,4.654 c0.054,0.189,0.221,0.32,0.41,0.32c0.015,0,0.03-0.001,0.045-0.002c0.193-0.022,0.379-0.033,0.558-0.033 c1.241,0,2.122,0.529,2.694,1.595c0.663,1.256,0.485,2.436-0.546,3.618c-0.139,0.155-0.138,0.389-0.004,0.549 c1.035,1.19,2.237,2.2,3.581,3.001c0.023,0.014,0.048,0.022,0.073,0.03c0.039,0.013,0.081,0.019,0.123,0.019 c0.126,0,0.258-0.053,0.343-0.145c0.037-0.029,0.059-0.057,0.082-0.083c0.639-0.802,1.521-1.238,2.429-1.238 c0.282,0,0.566,0.042,0.846,0.128c0.003,0,0.005,0,0.008,0c0.011,0,0.021,0.003,0.032,0.006c1.247,0.399,2.035,1.435,2.136,2.772 c0.024,0.248,0.143,0.561,0.609,0.586c0.298,0.018,0.597,0.027,0.895,0.027c1.128,0,2.25-0.128,3.347-0.38 c0.06-0.015,0.122-0.037,0.173-0.047l0.054-0.018c0.196-0.054,0.326-0.246,0.309-0.451c-0.156-1.424,0.285-2.437,1.362-3.096 c0.556-0.344,1.101-0.515,1.641-0.515c0.734,0,1.46,0.317,2.191,0.951c0.078,0.066,0.175,0.099,0.272,0.099 c0.099,0,0.198-0.034,0.278-0.102c1.2-1.024,2.217-2.225,3.022-3.561c0.105-0.18,0.07-0.411-0.096-0.539 c-1.202-0.969-1.596-2.077-1.21-3.39c0.414-1.379,1.394-2.103,2.999-2.201c0.188-0.009,0.344-0.151,0.381-0.332 c0.216-0.996-0.033-3.955-0.397-4.792c-0.069-0.151-0.222-0.247-0.382-0.247c-0.018,0-0.037,0.001-0.055,0.004 c-0.213,0.026-0.417,0.04-0.612,0.04c-1.235,0-2.117-0.534-2.687-1.625c-0.665-1.271-0.454-2.468,0.626-3.654 c0.147-0.159,0.155-0.397,0.014-0.559c-1.035-1.21-2.241-2.229-3.592-3.032c-0.067-0.042-0.142-0.062-0.217-0.062 c-0.128,0-0.255,0.061-0.335,0.174c-0.705,0.936-1.536,1.407-2.485,1.407c-0.241,0-0.49-0.03-0.746-0.091 c-1.53-0.373-2.306-1.384-2.384-3.113c-0.013-0.217-0.179-0.387-0.394-0.401C37.194,34.494,36.84,34.482,36.487,34.482 L36.487,34.482z M36.475,51.882c-0.265,0-0.533-0.041-0.799-0.125c-1.377-0.44-2.136-1.913-1.695-3.291 c0.356-1.112,1.384-1.821,2.492-1.821c0.265,0,0.533,0.041,0.799,0.125c1.377,0.44,2.136,1.913,1.695,3.291 C38.611,51.173,37.582,51.882,36.475,51.882L36.475,51.882z"/>
  <path fill="#7777ab"
        d="M38.994,41.384c-4.345-1.39-9.01,1.013-10.4,5.358s1.013,9.01,5.358,10.4s9.01-1.013,10.4-5.358 C45.743,47.44,43.339,42.774,38.994,41.384z M34.853,54.329c-2.791-0.893-4.338-3.894-3.444-6.686s3.894-4.338,6.686-3.444 s4.338,3.894,3.444,6.686C40.645,53.676,37.644,55.222,34.853,54.329z"/>
  <path fill="#472b29"
        d="M36.469,57.787c-0.712,0-1.425-0.09-2.124-0.271c-0.134-0.035-0.214-0.171-0.18-0.305 c0.035-0.133,0.17-0.214,0.305-0.18c1.485,0.383,3.044,0.332,4.504-0.148c0.131-0.045,0.272,0.028,0.315,0.159 s-0.028,0.272-0.159,0.315C38.265,57.644,37.368,57.787,36.469,57.787z M33.253,57.134c-0.033,0-0.065-0.006-0.097-0.02 c-3.418-1.441-5.497-4.894-5.174-8.592c0.012-0.138,0.125-0.243,0.271-0.228c0.137,0.012,0.239,0.133,0.227,0.271 c-0.304,3.481,1.653,6.731,4.87,8.088c0.127,0.054,0.187,0.2,0.133,0.327C33.443,57.076,33.351,57.134,33.253,57.134z M40.469,56.753c-0.088,0-0.173-0.047-0.219-0.129c-0.067-0.121-0.023-0.273,0.098-0.34c0.636-0.351,1.221-0.785,1.739-1.291 c0.1-0.097,0.258-0.094,0.354,0.004c0.097,0.099,0.095,0.257-0.004,0.354c-0.551,0.538-1.172,0.999-1.848,1.371 C40.551,56.743,40.51,56.753,40.469,56.753z M36.474,54.833c-0.569,0-1.141-0.089-1.698-0.267l0,0 c-1.414-0.452-2.568-1.431-3.25-2.754c-0.682-1.324-0.809-2.832-0.356-4.246c0.453-1.413,1.431-2.567,2.755-3.25 c1.325-0.681,2.833-0.807,4.245-0.356c2.924,0.937,4.542,4.076,3.607,7c-0.453,1.414-1.431,2.568-2.755,3.25 C38.22,54.624,37.35,54.833,36.474,54.833z M36.474,44.193c-0.797,0-1.589,0.191-2.32,0.567c-1.206,0.621-2.096,1.672-2.507,2.958 c-0.412,1.287-0.296,2.659,0.324,3.864c0.621,1.205,1.671,2.096,2.958,2.507l0,0c1.286,0.41,2.659,0.297,3.864-0.324 s2.096-1.671,2.507-2.958c0.852-2.661-0.621-5.52-3.283-6.371C37.511,44.274,36.991,44.193,36.474,44.193z M43.266,54.237 c-0.05,0-0.1-0.015-0.143-0.045c-0.113-0.079-0.141-0.234-0.062-0.348c0.454-0.652,0.809-1.371,1.054-2.137 c0.864-2.701,0.22-5.694-1.681-7.813c-0.092-0.103-0.083-0.261,0.019-0.354c0.102-0.091,0.261-0.083,0.353,0.02 c2.019,2.249,2.703,5.43,1.785,8.299c-0.261,0.813-0.637,1.577-1.12,2.27C43.422,54.2,43.344,54.237,43.266,54.237z M28.594,46.992 c-0.025,0-0.051-0.004-0.076-0.012c-0.131-0.042-0.204-0.183-0.162-0.314c0.693-2.165,2.19-3.932,4.216-4.976 c2.025-1.044,4.333-1.235,6.499-0.544c0.524,0.168,1.031,0.386,1.508,0.647c0.121,0.066,0.165,0.218,0.099,0.339 c-0.067,0.121-0.219,0.167-0.34,0.099c-0.448-0.246-0.925-0.451-1.419-0.608c-2.038-0.651-4.209-0.47-6.117,0.512 c-1.907,0.982-3.316,2.646-3.968,4.684C28.798,46.925,28.7,46.992,28.594,46.992z M41.984,43.344c-0.06,0-0.119-0.021-0.167-0.063 c-0.224-0.2-0.458-0.388-0.699-0.558c-0.113-0.08-0.139-0.236-0.06-0.349c0.081-0.112,0.237-0.139,0.349-0.06 c0.255,0.181,0.505,0.381,0.743,0.593c0.103,0.093,0.112,0.25,0.02,0.354C42.121,43.315,42.053,43.344,41.984,43.344z"/>
  <path fill="#472b29"
        d="M44.225 52.28c-.042 0-.084-.011-.124-.032l-2.604-1.481c-.12-.068-.162-.222-.094-.342.068-.121.22-.161.341-.094l2.604 1.481c.12.068.162.222.094.342C44.396 52.235 44.312 52.28 44.225 52.28zM44.665 50.294c-.025 0-.05-.004-.075-.012l-2.856-.903c-.132-.042-.205-.182-.163-.313.042-.131.184-.206.313-.163l2.856.903c.132.042.205.182.163.313C44.869 50.226 44.771 50.294 44.665 50.294zM65.81 38.738c-.05 0-.101-.015-.144-.046l-2.341-1.653c-.113-.079-.14-.235-.06-.349.081-.111.238-.139.348-.06l2.341 1.653c.113.079.14.235.06.349C65.965 38.701 65.888 38.738 65.81 38.738zM58.961 40.32c-.07 0-.141-.029-.19-.087-.09-.105-.078-.263.027-.353l2.451-2.1c.104-.09.263-.078.353.026.09.105.078.263-.027.353l-2.451 2.1C59.077 40.301 59.019 40.32 58.961 40.32zM57.657 38.568c-.104 0-.201-.065-.237-.169-.044-.131.025-.273.156-.317l2.754-.94c.127-.05.272.025.317.155.044.131-.025.273-.156.317l-2.754.94C57.711 38.564 57.684 38.568 57.657 38.568zM60.666 35.04c-.009 0-.019 0-.028-.002-.137-.015-.236-.139-.221-.275l.347-3.146c.015-.138.142-.254.276-.221.137.015.236.139.221.275l-.347 3.146C60.899 34.945 60.791 35.04 60.666 35.04z"/>
  <g>
    <path fill="#472b29"
          d="M62.03,34.683c-0.033,0-0.067-0.007-0.1-0.021c-0.126-0.056-0.185-0.202-0.13-0.329l1.136-2.615 c0.055-0.126,0.204-0.183,0.329-0.13c0.126,0.056,0.185,0.202,0.13,0.329l-1.136,2.615C62.219,34.626,62.126,34.683,62.03,34.683z"/>
  </g>
  <g>
    <path fill="#472b29"
          d="M37.808,44.379c-0.043,0-0.087-0.011-0.127-0.034c-0.119-0.07-0.159-0.224-0.088-0.343l1.52-2.582 c0.07-0.119,0.223-0.159,0.342-0.089c0.119,0.07,0.159,0.224,0.088,0.343l-1.52,2.582C37.977,44.335,37.894,44.379,37.808,44.379z"/>
  </g>
  <g>
    <path fill="#472b29"
          d="M34.752,44.363c-0.015,0-0.03-0.001-0.044-0.004c-0.136-0.024-0.227-0.154-0.202-0.29l0.529-2.949 c0.025-0.136,0.155-0.231,0.29-0.202c0.136,0.024,0.227,0.154,0.202,0.29l-0.529,2.949C34.976,44.278,34.871,44.363,34.752,44.363z"/>
  </g>
  <g>
    <path fill="#472b29"
          d="M36.322,44.152c-0.026,0-0.052-0.004-0.078-0.013c-0.131-0.043-0.203-0.184-0.16-0.315l0.934-2.847 c0.042-0.132,0.185-0.202,0.315-0.159s0.203,0.184,0.16,0.315L36.56,43.98C36.525,44.086,36.427,44.152,36.322,44.152z"/>
  </g>
  <g>
    <path fill="#472b29"
          d="M44.44,48.341c-0.017,0-0.034-0.002-0.051-0.005l-2.934-0.609c-0.135-0.028-0.222-0.161-0.194-0.296 c0.028-0.136,0.164-0.217,0.295-0.194l2.934,0.609c0.135,0.028,0.222,0.161,0.194,0.296C44.66,48.26,44.556,48.341,44.44,48.341z"/>
  </g>
  <g>
    <path fill="#472b29"
          d="M31.869,56.324c-0.066,0-0.133-0.026-0.182-0.078c-0.095-0.101-0.09-0.259,0.011-0.354l2.18-2.056 c0.101-0.096,0.259-0.09,0.354,0.01c0.095,0.101,0.09,0.259-0.011,0.354l-2.18,2.056C31.992,56.302,31.931,56.324,31.869,56.324z"/>
  </g>
  <g>
    <path fill="#472b29"
          d="M30.099,54.601c-0.106,0-0.205-0.068-0.238-0.175c-0.042-0.132,0.031-0.272,0.163-0.313l2.857-0.901 c0.132-0.04,0.272,0.033,0.313,0.163c0.042,0.132-0.031,0.272-0.163,0.313l-2.857,0.901C30.149,54.597,30.124,54.601,30.099,54.601 z"/>
  </g>
  <g>
    <path fill="#472b29"
          d="M28.962,52.858c-0.122,0-0.228-0.089-0.247-0.213c-0.021-0.137,0.073-0.264,0.21-0.284l2.963-0.445 c0.137-0.021,0.264,0.074,0.284,0.21c0.021,0.137-0.073,0.264-0.21,0.284L29,52.855C28.987,52.857,28.975,52.858,28.962,52.858z"/>
  </g>
  <g>
    <path fill="#472b29"
          d="M28.415,51.145c-0.137,0-0.249-0.11-0.25-0.247c-0.001-0.138,0.109-0.251,0.247-0.253l2.996-0.036 c0.001,0,0.002,0,0.003,0c0.137,0,0.249,0.11,0.25,0.247c0.001,0.138-0.109,0.251-0.247,0.253l-2.996,0.036 C28.417,51.145,28.416,51.145,28.415,51.145z"/>
  </g>
  <g>
    <path fill="#a3a3cd"
          d="M62.895,72.783c-0.182,0-0.365-0.005-0.547-0.014c-0.152-1.311-0.972-2.324-2.216-2.723 l-0.104-0.033l-0.029-0.001c-0.264-0.072-0.534-0.108-0.805-0.108c-0.893,0-1.751,0.399-2.387,1.103 c-0.851-0.539-1.623-1.186-2.305-1.931c0.861-1.123,0.973-2.298,0.338-3.501c-0.598-1.114-1.547-1.678-2.823-1.678 c-0.071,0-0.144,0.002-0.218,0.005c-0.222-0.987-0.313-1.996-0.268-2.993c1.438-0.179,2.361-0.942,2.754-2.273 c0.263-0.896,0.286-2.177-1.006-3.319c0.539-0.859,1.183-1.631,1.926-2.313c0.653,0.523,1.337,0.788,2.038,0.788 c0.499,0,1.006-0.135,1.507-0.401c0.844-0.441,1.795-1.338,1.673-3.111c0.815-0.184,1.646-0.276,2.483-0.276 c0.171,0,0.343,0.004,0.516,0.012c0.204,1.918,1.435,2.623,2.459,2.872c0.265,0.063,0.524,0.095,0.775,0.095 c0.912,0,1.715-0.396,2.39-1.179c0.851,0.539,1.619,1.189,2.297,1.941c-1.127,1.405-0.856,2.692-0.41,3.544 c0.592,1.131,1.54,1.704,2.818,1.704c0.096,0,0.193-0.003,0.293-0.01c0.166,0.678,0.306,2.221,0.24,2.994 c-1.797,0.22-2.506,1.342-2.785,2.271c-0.372,1.266-0.042,2.377,0.979,3.311c-0.54,0.844-1.194,1.613-1.946,2.29 c-0.649-0.498-1.325-0.751-2.007-0.751c-0.57,0-1.146,0.177-1.709,0.525c-1.033,0.633-1.525,1.605-1.466,2.894 C64.532,72.695,63.712,72.783,62.895,72.783z M62.894,58.549c-1.24,0-2.326,0.794-2.704,1.977 c-0.231,0.723-0.167,1.491,0.18,2.166c0.348,0.674,0.937,1.173,1.66,1.404c0.282,0.09,0.573,0.136,0.867,0.136 c1.24,0,2.326-0.794,2.704-1.976c0.478-1.492-0.348-3.094-1.839-3.571C63.479,58.595,63.188,58.549,62.894,58.549z"/>
    <path fill="#472b29"
          d="M62.83,50.703c0.349,1.487,1.349,2.49,2.892,2.865c0.315,0.075,0.629,0.113,0.935,0.113 c0.671,0,1.584-0.185,2.476-0.978c0.463,0.33,0.9,0.699,1.308,1.106c-0.743,1.207-0.794,2.53-0.128,3.803 c0.667,1.274,1.753,1.986,3.153,2.071c0.073,0.513,0.126,1.185,0.134,1.708c-1.384,0.345-2.353,1.265-2.773,2.662 c-0.283,0.962-0.34,2.3,0.755,3.58c-0.337,0.471-0.713,0.912-1.122,1.32c-0.625-0.37-1.272-0.557-1.934-0.557 c-0.702,0-1.402,0.212-2.072,0.627c-0.793,0.485-1.679,1.372-1.797,2.914c-0.572,0.095-1.152,0.143-1.73,0.145 c-0.347-1.286-1.284-2.287-2.564-2.696l-0.242-0.078H60.07c-0.288-0.069-0.582-0.104-0.877-0.104 c-0.897,0-1.762,0.326-2.465,0.909c-0.473-0.334-0.918-0.707-1.329-1.113c0.877-1.482,0.547-2.83,0.056-3.76 c-0.66-1.23-1.72-1.926-3.078-2.029c-0.098-0.572-0.15-1.145-0.155-1.72c1.37-0.35,2.326-1.27,2.736-2.658 c0.391-1.328,0.115-2.578-0.78-3.604c0.329-0.468,0.696-0.909,1.098-1.32c0.629,0.388,1.288,0.583,1.968,0.583 c0.614,0,1.231-0.163,1.827-0.479c1.266-0.663,1.974-1.767,2.056-3.16C61.686,50.757,62.257,50.707,62.83,50.703 M62.896,64.932 c1.545,0,2.9-0.99,3.371-2.462c0.288-0.901,0.209-1.86-0.225-2.701c-0.433-0.84-1.168-1.462-2.069-1.75 c-0.351-0.112-0.714-0.169-1.08-0.169c-1.545,0-2.9,0.989-3.371,2.462c-0.595,1.859,0.434,3.856,2.293,4.452 C62.167,64.875,62.53,64.932,62.896,64.932 M62.907,49.303c-1.008,0-1.998,0.125-2.955,0.37c-0.17,0.041-0.278,0.203-0.256,0.379 c0.173,1.286-0.243,2.181-1.275,2.722c-0.401,0.213-0.793,0.319-1.178,0.319c-0.616,0-1.216-0.272-1.81-0.815 c-0.066-0.061-0.149-0.091-0.232-0.091c-0.081,0-0.161,0.028-0.226,0.085c-0.973,0.846-1.802,1.839-2.454,2.946 c-0.091,0.145-0.058,0.341,0.082,0.447c1.004,0.776,1.332,1.685,1.012,2.773c-0.335,1.135-1.13,1.723-2.442,1.803 c-0.171,0.007-0.311,0.147-0.321,0.318c-0.093,1.274,0.026,2.554,0.339,3.806c0.044,0.154,0.18,0.261,0.334,0.261 c0.012,0,0.025,0,0.038-0.002c0.158-0.018,0.31-0.027,0.456-0.027c1.015,0,1.735,0.433,2.203,1.305 c0.542,1.027,0.396,1.992-0.447,2.958c-0.114,0.127-0.113,0.318-0.003,0.449c0.846,0.973,1.829,1.799,2.929,2.454 c0.019,0.012,0.039,0.018,0.06,0.024c0.032,0.01,0.066,0.015,0.101,0.015c0.103,0,0.21-0.043,0.281-0.118 c0.03-0.024,0.049-0.046,0.067-0.069c0.523-0.656,1.244-1.012,1.986-1.012c0.231,0,0.463,0.034,0.692,0.105 c0.002,0,0.004,0,0.006,0c0.009,0,0.018,0.002,0.026,0.005c1.019,0.326,1.664,1.173,1.747,2.267 c0.019,0.203,0.117,0.458,0.498,0.479c0.244,0.015,0.488,0.022,0.732,0.022c0.923,0,1.84-0.105,2.737-0.311 c0.049-0.012,0.099-0.03,0.142-0.039l0.044-0.014c0.16-0.044,0.267-0.201,0.253-0.369c-0.127-1.165,0.233-1.993,1.113-2.532 c0.454-0.281,0.9-0.421,1.342-0.421c0.6,0,1.194,0.259,1.792,0.778c0.064,0.054,0.143,0.081,0.223,0.081 c0.081,0,0.162-0.028,0.227-0.083c0.982-0.838,1.813-1.819,2.471-2.912c0.086-0.146,0.057-0.336-0.078-0.441 c-0.983-0.792-1.305-1.698-0.99-2.772c0.338-1.127,1.14-1.719,2.452-1.8c0.154-0.007,0.281-0.124,0.312-0.271 c0.176-0.814-0.027-3.234-0.325-3.919c-0.056-0.124-0.181-0.202-0.312-0.202c-0.015,0-0.03,0.001-0.045,0.003 c-0.174,0.021-0.341,0.033-0.5,0.033c-1.01,0-1.731-0.437-2.198-1.329c-0.544-1.039-0.371-2.018,0.512-2.988 c0.12-0.13,0.126-0.325,0.011-0.457c-0.846-0.99-1.833-1.822-2.937-2.479c-0.055-0.034-0.116-0.051-0.177-0.051 c-0.105,0-0.208,0.049-0.274,0.143c-0.576,0.765-1.256,1.15-2.032,1.15c-0.197,0-0.401-0.025-0.61-0.075 c-1.251-0.305-1.885-1.131-1.95-2.545c-0.011-0.177-0.146-0.316-0.322-0.328C63.485,49.313,63.195,49.303,62.907,49.303 L62.907,49.303z M62.896,63.532c-0.216,0-0.436-0.033-0.653-0.103c-1.126-0.361-1.747-1.565-1.386-2.691 c0.291-0.909,1.132-1.489,2.038-1.489c0.216,0,0.436,0.033,0.653,0.103c1.126,0.36,1.747,1.564,1.386,2.691 C64.643,62.952,63.802,63.532,62.896,63.532L62.896,63.532z"/>
    <path fill="#7777ab"
          d="M64.957,54.947c-3.553-1.137-7.368,0.829-8.505,4.382c-1.137,3.553,0.829,7.368,4.382,8.505 c3.553,1.137,7.368-0.829,8.505-4.382C70.475,59.899,68.509,56.084,64.957,54.947z M61.57,65.532 c-2.283-0.73-3.547-3.185-2.817-5.467c0.73-2.283,3.185-3.547,5.467-2.817c2.283,0.73,3.547,3.185,2.817,5.467 C66.307,64.998,63.852,66.263,61.57,65.532z"/>
    <path fill="#472b29"
          d="M62.89,68.405c-0.586,0-1.172-0.073-1.747-0.222c-0.134-0.034-0.214-0.171-0.18-0.305 c0.035-0.133,0.169-0.208,0.305-0.18c1.208,0.312,2.472,0.27,3.657-0.121c0.131-0.043,0.272,0.027,0.315,0.159 c0.043,0.131-0.028,0.272-0.159,0.315C64.369,68.288,63.63,68.405,62.89,68.405z M60.261,67.872c-0.033,0-0.065-0.006-0.097-0.02 c-2.813-1.188-4.524-4.029-4.258-7.071c0.012-0.138,0.127-0.239,0.271-0.228c0.137,0.012,0.239,0.133,0.227,0.271 c-0.247,2.826,1.342,5.465,3.955,6.567c0.127,0.054,0.187,0.2,0.133,0.328C60.451,67.814,60.358,67.872,60.261,67.872z M66.162,67.561c-0.088,0-0.173-0.047-0.219-0.129c-0.067-0.121-0.023-0.273,0.098-0.34c0.515-0.284,0.991-0.637,1.413-1.049 c0.1-0.097,0.258-0.093,0.354,0.004c0.097,0.099,0.095,0.258-0.004,0.354c-0.455,0.443-0.966,0.823-1.521,1.129 C66.245,67.551,66.203,67.561,66.162,67.561z M62.892,65.989c-0.463,0-0.934-0.07-1.398-0.219 c-1.167-0.374-2.121-1.182-2.685-2.275s-0.668-2.339-0.294-3.506c0.374-1.168,1.182-2.121,2.275-2.685 c1.093-0.563,2.338-0.667,3.506-0.295c2.415,0.772,3.751,3.367,2.979,5.782C66.651,64.743,64.838,65.989,62.892,65.989z M62.896,57.29c-0.645,0-1.286,0.154-1.876,0.459c-0.975,0.502-1.695,1.352-2.028,2.393c-0.333,1.04-0.24,2.149,0.262,3.125 c0.502,0.975,1.352,1.694,2.393,2.027c2.149,0.688,4.464-0.502,5.153-2.654c0.688-2.153-0.502-4.465-2.655-5.153 C63.734,57.355,63.314,57.29,62.896,57.29z M68.449,65.503c-0.049,0-0.099-0.015-0.143-0.045 c-0.113-0.079-0.141-0.234-0.062-0.348c0.37-0.531,0.657-1.114,0.855-1.734c0.702-2.193,0.179-4.625-1.365-6.345 c-0.092-0.103-0.083-0.261,0.019-0.354c0.103-0.091,0.26-0.083,0.353,0.02c1.662,1.852,2.225,4.469,1.469,6.831 c-0.214,0.668-0.524,1.296-0.922,1.867C68.606,65.466,68.528,65.503,68.449,65.503z M56.452,59.579 c-0.025,0-0.051-0.004-0.076-0.012c-0.131-0.042-0.204-0.183-0.162-0.314c1.18-3.684,5.133-5.725,8.819-4.544 c0.431,0.138,0.848,0.317,1.241,0.533c0.121,0.066,0.165,0.219,0.099,0.339c-0.067,0.121-0.221,0.168-0.34,0.099 c-0.364-0.2-0.751-0.366-1.152-0.494c-3.42-1.097-7.096,0.798-8.19,4.22C56.656,59.512,56.558,59.579,56.452,59.579z M67.402,56.596c-0.06,0-0.119-0.021-0.167-0.063c-0.183-0.164-0.374-0.316-0.567-0.454c-0.112-0.08-0.139-0.236-0.059-0.349 c0.081-0.113,0.236-0.139,0.349-0.06c0.209,0.148,0.415,0.313,0.611,0.489c0.103,0.093,0.111,0.25,0.019,0.354 C67.539,56.567,67.47,56.596,67.402,56.596z"/>
    <path fill="#472b29"
          d="M69.234 63.903c-.042 0-.084-.011-.124-.033l-2.13-1.211c-.12-.068-.162-.222-.094-.342.067-.121.221-.161.341-.094l2.13 1.212c.12.068.162.222.094.342C69.405 63.858 69.321 63.903 69.234 63.903zM69.593 62.278c-.025 0-.05-.004-.075-.012l-2.336-.738c-.132-.042-.205-.182-.163-.313.042-.131.183-.206.313-.163l2.336.738c.132.042.205.182.163.313C69.798 62.21 69.7 62.278 69.593 62.278zM63.987 57.441c-.043 0-.087-.011-.127-.034-.119-.07-.159-.224-.088-.343l1.243-2.111c.07-.118.223-.158.342-.089.119.07.159.224.088.343l-1.243 2.111C64.156 57.397 64.072 57.441 63.987 57.441zM61.488 57.429c-.015 0-.03-.001-.044-.004-.136-.024-.227-.154-.202-.29l.433-2.411c.024-.136.158-.229.29-.202.136.024.227.154.202.29l-.433 2.411C61.712 57.344 61.606 57.429 61.488 57.429zM62.771 57.256c-.026 0-.052-.004-.078-.013-.131-.043-.203-.184-.159-.315l.764-2.327c.042-.132.184-.206.315-.159.131.043.203.184.159.315l-.764 2.327C62.975 57.189 62.876 57.256 62.771 57.256zM69.41 60.682c-.017 0-.034-.002-.051-.005l-2.399-.499c-.135-.028-.222-.161-.194-.296.028-.136.163-.214.295-.194l2.399.499c.135.028.222.161.194.296C69.629 60.601 69.525 60.682 69.41 60.682zM59.13 67.209c-.066 0-.133-.026-.182-.078-.095-.101-.09-.259.011-.354l1.783-1.68c.101-.096.259-.09.354.01.095.101.09.259-.011.354l-1.783 1.68C59.253 67.187 59.191 67.209 59.13 67.209zM57.683 65.8c-.106 0-.205-.068-.238-.175-.042-.132.031-.272.163-.313l2.336-.737c.132-.041.272.033.313.163.042.132-.031.272-.163.313l-2.336.737C57.733 65.796 57.708 65.8 57.683 65.8zM56.752 64.375c-.122 0-.228-.089-.247-.213-.021-.137.073-.264.21-.284l2.423-.363c.135-.02.264.073.284.21s-.073.264-.21.284l-2.423.363C56.777 64.374 56.765 64.375 56.752 64.375z"/>
    <g>
      <path fill="#472b29"
            d="M56.305,62.975c-0.137,0-0.248-0.11-0.25-0.247c-0.001-0.138,0.109-0.251,0.247-0.253l2.45-0.03 c0.001,0,0.002,0,0.003,0c0.137,0,0.248,0.11,0.25,0.247c0.001,0.138-0.109,0.251-0.247,0.253l-2.45,0.03 C56.307,62.975,56.306,62.975,56.305,62.975z"/>
    </g>
  </g>
  <g>
    <path fill="#472b29"
          d="M61.723,41.229c-0.509,0-1.014-0.079-1.509-0.237c-1.264-0.404-2.296-1.279-2.905-2.462 c-0.609-1.184-0.723-2.531-0.318-3.795c0.042-0.132,0.182-0.204,0.314-0.162c0.131,0.042,0.204,0.183,0.162,0.314 c-0.364,1.137-0.262,2.349,0.286,3.413s1.477,1.852,2.613,2.215c0.672,0.215,1.365,0.271,2.059,0.158 c0.133-0.023,0.264,0.071,0.286,0.208c0.021,0.136-0.071,0.265-0.208,0.286C62.243,41.208,61.982,41.229,61.723,41.229z M63.764,40.766c-0.093,0-0.183-0.053-0.226-0.143c-0.06-0.124-0.007-0.273,0.118-0.333c1.112-0.53,1.964-1.505,2.338-2.675 c0.332-1.036,0.273-2.157-0.165-3.157c-0.055-0.127,0.002-0.274,0.129-0.33c0.127-0.051,0.274,0.003,0.329,0.129 c0.486,1.112,0.551,2.358,0.183,3.511c-0.417,1.301-1.364,2.385-2.6,2.974C63.837,40.758,63.8,40.766,63.764,40.766z M61.729,38.676c-0.244,0-0.492-0.037-0.737-0.115c-1.273-0.407-1.978-1.774-1.571-3.049c0.408-1.273,1.774-1.978,3.049-1.57 c0.615,0.196,1.117,0.623,1.415,1.2c0.297,0.577,0.353,1.234,0.156,1.849C63.711,38.019,62.755,38.676,61.729,38.676z M61.732,34.326c-0.815,0-1.574,0.521-1.835,1.338c-0.323,1.012,0.236,2.097,1.247,2.42c1.011,0.322,2.096-0.235,2.42-1.246 c0.156-0.487,0.112-1.009-0.125-1.467c-0.236-0.459-0.635-0.798-1.122-0.953C62.123,34.355,61.926,34.326,61.732,34.326z M65.628,33.829c-0.08,0-0.158-0.038-0.206-0.108c-0.175-0.256-0.375-0.492-0.594-0.702c-0.1-0.096-0.103-0.254-0.007-0.354 c0.096-0.101,0.254-0.101,0.354-0.008c0.244,0.234,0.465,0.497,0.66,0.78c0.078,0.114,0.049,0.27-0.065,0.348 C65.726,33.814,65.677,33.829,65.628,33.829z M58.654,32.914c-0.07,0-0.141-0.029-0.19-0.088c-0.09-0.104-0.078-0.263,0.027-0.353 c1.325-1.131,3.104-1.49,4.756-0.963c0.395,0.126,0.774,0.301,1.125,0.521c0.117,0.073,0.152,0.228,0.079,0.345 c-0.073,0.118-0.227,0.152-0.345,0.079c-0.316-0.198-0.656-0.355-1.012-0.469c-1.488-0.477-3.088-0.153-4.279,0.867 C58.769,32.895,58.711,32.914,58.654,32.914z"/>
  </g>
</svg>
